ffmpeg version N-92963-g1ea5529dd2 Copyright (c) 2000-2019 the FFmpeg developers
  built with gcc 8.2.1 (GCC) 20181201
  configuration: --enable-gpl --enable-version3 --enable-sdl2 --enable-fontconfig --enable-gnutls --enable-iconv --enable-libass --enable-libbluray --enable-libfreetype --enable-libmp3lame --enable-libopencore-amrnb --enable-libopencore-amrwb --enable-libopenjpeg --enable-libopus --enable-libshine --enable-libsnappy --enable-libsoxr --enable-libtheora --enable-libtwolame --enable-libvpx --enable-libwavpack --enable-libwebp --enable-libx264 --enable-libx265 --enable-libxml2 --enable-libzimg --enable-lzma --enable-zlib --enable-gmp --enable-libvidstab --enable-libvorbis --enable-libvo-amrwbenc --enable-libmysofa --enable-libspeex --enable-libxvid --enable-libaom --enable-libmfx --enable-amf --enable-ffnvcodec --enable-cuvid --enable-d3d11va --enable-nvenc --enable-nvdec --enable-dxva2 --enable-avisynth --enable-libopenmpt
  libavutil      56. 25.100 / 56. 25.100
  libavcodec     58. 43.101 / 58. 43.101
  libavformat    58. 25.100 / 58. 25.100
  libavdevice    58.  6.101 / 58.  6.101
  libavfilter     7. 48.100 /  7. 48.100
  libswscale      5.  4.100 /  5.  4.100
  libswresample   3.  4.100 /  3.  4.100
  libpostproc    55.  4.100 / 55.  4.100
Splitting the commandline.
Reading option '-v' ... matched as option 'v' (set logging level) with argument 'debug'.
Reading option '-nostdin' ... matched as option 'stdin' (enable or disable interaction on standard input) with argument 0.
Reading option '-progress' ... matched as option 'progress' (write program-readable progress information) with argument 'C:/Users/Jakob/AppData/Local/Temp/KritaFFmpegProgress.vi3184'.
Reading option '-r' ... matched as option 'r' (set frame rate (Hz value, fraction or abbreviation)) with argument '2'.
Reading option '-start_number' ... matched as AVOption 'start_number' with argument '0'.
Reading option '-i' ... matched as input url with argument 'F:/github/webbutveckling-projekt-2/psd/frame%04d.png'.
Reading option '-i' ... matched as input url with argument 'F:/github/webbutveckling-projekt-2/psd/palette.png'.
Reading option '-lavfi' ... matched as option 'lavfi' (create a complex filtergraph) with argument '[0:v][1:v] paletteuse'.
Reading option '-y' ... matched as option 'y' (overwrite output files) with argument '1'.
Reading option 'F:/github/webbutveckling-projekt-2/psd/Webpage-second-mobile.gif' ... matched as output url.
Finished splitting the commandline.
Parsing a group of options: global .
Applying option v (set logging level) with argument debug.
Applying option nostdin (enable or disable interaction on standard input) with argument 0.
Applying option progress (write program-readable progress information) with argument C:/Users/Jakob/AppData/Local/Temp/KritaFFmpegProgress.vi3184.
[file @ 000001ba8296b440] Setting default whitelist 'file,crypto'
Applying option lavfi (create a complex filtergraph) with argument [0:v][1:v] paletteuse.
Applying option y (overwrite output files) with argument 1.
Successfully parsed a group of options.
Parsing a group of options: input url F:/github/webbutveckling-projekt-2/psd/frame%04d.png.
Applying option r (set frame rate (Hz value, fraction or abbreviation)) with argument 2.
Successfully parsed a group of options.
Opening an input file: F:/github/webbutveckling-projekt-2/psd/frame%04d.png.
[image2 @ 000001ba829ab880] Opening 'F:/github/webbutveckling-projekt-2/psd/frame0000.png' for reading
[file @ 000001ba829b0040] Setting default whitelist 'file,crypto'
[AVIOContext @ 000001ba829b8180] Statistics: 31895 bytes read, 0 seeks
[image2 @ 000001ba829ab880] Opening 'F:/github/webbutveckling-projekt-2/psd/frame0001.png' for reading
[file @ 000001ba829c0180] Setting default whitelist 'file,crypto'
[AVIOContext @ 000001ba829c0280] Statistics: 33470 bytes read, 0 seeks
Input #0, image2, from 'F:/github/webbutveckling-projekt-2/psd/frame%04d.png':
  Duration: 00:00:00.08, start: 0.000000, bitrate: N/A
    Stream #0:0, 2, 1/25: Video: png, 1 reference frame, rgba(pc), 300x250 [SAR 3937:3937 DAR 6:5], 0/1, 25 tbr, 25 tbn, 25 tbc
Successfully opened the file.
Parsing a group of options: input url F:/github/webbutveckling-projekt-2/psd/palette.png.
Successfully parsed a group of options.
Opening an input file: F:/github/webbutveckling-projekt-2/psd/palette.png.
[NULL @ 000001ba82a14c80] Opening 'F:/github/webbutveckling-projekt-2/psd/palette.png' for reading
[file @ 000001ba82a15380] Setting default whitelist 'file,crypto'
[png_pipe @ 000001ba82a14c80] Format png_pipe probed with size=2048 and score=99
[png_pipe @ 000001ba82a14c80] Before avformat_find_stream_info() pos: 0 bytes read:992 seeks:0 nb_streams:1
[png_pipe @ 000001ba82a14c80] After avformat_find_stream_info() pos: 992 bytes read:992 seeks:0 frames:1
Input #1, png_pipe, from 'F:/github/webbutveckling-projekt-2/psd/palette.png':
  Duration: N/A, bitrate: N/A
    Stream #1:0, 1, 1/25: Video: png, 1 reference frame, rgba(pc), 16x16 [SAR 1:1 DAR 1:1], 0/1, 25 tbr, 25 tbn, 25 tbc
Successfully opened the file.
Parsing a group of options: output url F:/github/webbutveckling-projekt-2/psd/Webpage-second-mobile.gif.
Successfully parsed a group of options.
Opening an output file: F:/github/webbutveckling-projekt-2/psd/Webpage-second-mobile.gif.
[file @ 000001ba829b3940] Setting default whitelist 'file,crypto'
Successfully opened the file.
detected 8 logical cores
Stream mapping:
  Stream #0:0 (png) -> paletteuse:default
  Stream #1:0 (png) -> paletteuse:palette
  paletteuse -> Stream #0:0 (gif)
cur_dts is invalid (this is harmless if it occurs once at the start per stream)
    Last message repeated 507 times
[graph 0 input from stream 0:0 @ 000001ba829b6400] Setting 'video_size' to value '300x250'
[graph 0 input from stream 0:0 @ 000001ba829b6400] Setting 'pix_fmt' to value '26'
[graph 0 input from stream 0:0 @ 000001ba829b6400] Setting 'time_base' to value '1/2'
[graph 0 input from stream 0:0 @ 000001ba829b6400] Setting 'pixel_aspect' to value '3937/3937'
[graph 0 input from stream 0:0 @ 000001ba829b6400] Setting 'sws_param' to value 'flags=2'
[graph 0 input from stream 0:0 @ 000001ba829b6400] Setting 'frame_rate' to value '2/1'
[graph 0 input from stream 0:0 @ 000001ba829b6400] w:300 h:250 pixfmt:rgba tb:1/2 fr:2/1 sar:3937/3937 sws_param:flags=2
[graph 0 input from stream 1:0 @ 000001ba82e8f380] Setting 'video_size' to value '16x16'
[graph 0 input from stream 1:0 @ 000001ba82e8f380] Setting 'pix_fmt' to value '26'
[graph 0 input from stream 1:0 @ 000001ba82e8f380] Setting 'time_base' to value '1/25'
[graph 0 input from stream 1:0 @ 000001ba82e8f380] Setting 'pixel_aspect' to value '1/1'
[graph 0 input from stream 1:0 @ 000001ba82e8f380] Setting 'sws_param' to value 'flags=2'
[graph 0 input from stream 1:0 @ 000001ba82e8f380] Setting 'frame_rate' to value '25/1'
[graph 0 input from stream 1:0 @ 000001ba82e8f380] w:16 h:16 pixfmt:rgba tb:1/25 fr:25/1 sar:1/1 sws_param:flags=2
[format @ 000001ba82a0a480] Setting 'pix_fmts' to value 'rgb8|bgr8|rgb4_byte|bgr4_byte|gray|pal8'
[auto_scaler_0 @ 000001ba82e89040] w:iw h:ih flags:'bilinear' interl:0
[Parsed_paletteuse_0 @ 000001ba82e94e00] auto-inserting filter 'auto_scaler_0' between the filter 'graph 0 input from stream 0:0' and the filter 'Parsed_paletteuse_0'
[auto_scaler_1 @ 000001ba82f3e880] w:iw h:ih flags:'bilinear' interl:0
[Parsed_paletteuse_0 @ 000001ba82e94e00] auto-inserting filter 'auto_scaler_1' between the filter 'graph 0 input from stream 1:0' and the filter 'Parsed_paletteuse_0'
[AVFilterGraph @ 000001ba82e94d40] query_formats: 5 queried, 2 merged, 2 already done, 0 delayed
[swscaler @ 000001ba82a1ef00] Forcing full internal H chroma due to input having non subsampled chroma
[auto_scaler_0 @ 000001ba82e89040] w:300 h:250 fmt:rgba sar:3937/3937 -> w:300 h:250 fmt:bgra sar:1/1 flags:0x2
[swscaler @ 000001ba82a2be80] Forcing full internal H chroma due to input having non subsampled chroma
[auto_scaler_1 @ 000001ba82f3e880] w:16 h:16 fmt:rgba sar:1/1 -> w:16 h:16 fmt:bgra sar:1/1 flags:0x2
[Parsed_paletteuse_0 @ 000001ba82e94e00] [framesync @ 000001ba82f4da08] Selected 1/50 time base
[Parsed_paletteuse_0 @ 000001ba82e94e00] [framesync @ 000001ba82f4da08] Sync level 2
Output #0, gif, to 'F:/github/webbutveckling-projekt-2/psd/Webpage-second-mobile.gif':
  Metadata:
    encoder         : Lavf58.25.100
    Stream #0:0, 0, 1/100: Video: gif, 1 reference frame, pal8, 300x250 [SAR 1:1 DAR 6:5], 0/1, q=2-31, 200 kb/s, 2 fps, 100 tbn, 2 tbc (default)
    Metadata:
      encoder         : Lavc58.43.101 gif
Clipping frame in rate conversion by 0.000008
[gif @ 000001ba829b2c80] 136x59 image at pos (13;72) [area:300x250]
[Parsed_paletteuse_0 @ 000001ba82e94e00] [framesync @ 000001ba82f4da08] Sync level 0
[out_0_0 @ 000001ba82e88e80] EOF on sink link out_0_0:default.
No more output streams to write to, finishing.
frame=    2 fps=0.0 q=-0.0 Lsize=      14kB time=00:00:00.51 bitrate= 225.0kbits/s speed=56.8x    
[AVIOContext @ 000001ba829ab600] Statistics: 0 seeks, 1 writeouts
video:14kB audio:0kB subtitle:0kB other streams:0kB global headers:0kB muxing overhead: 0.139655%
Input file #0 (F:/github/webbutveckling-projekt-2/psd/frame%04d.png):
  Input stream #0:0 (video): 2 packets read (65365 bytes); 2 frames decoded; 
  Total: 2 packets (65365 bytes) demuxed
Input file #1 (F:/github/webbutveckling-projekt-2/psd/palette.png):
  Input stream #1:0 (video): 1 packets read (992 bytes); 1 frames decoded; 
  Total: 1 packets (992 bytes) demuxed
Output file #0 (F:/github/webbutveckling-projekt-2/psd/Webpage-second-mobile.gif):
  Output stream #0:0 (video): 2 frames encoded; 2 packets muxed (14321 bytes); 
  Total: 2 packets (14321 bytes) muxed
3 frames successfully decoded, 0 decoding errors
[AVIOContext @ 000001ba82a08240] Statistics: 0 seeks, 1 writeouts
[AVIOContext @ 000001ba82a15480] Statistics: 992 bytes read, 0 seeks
